<?xml version="1.0" encoding="UTF-8"?>
<svg width="888" height="573" viewBox="0 0 888 573" fill="none" xmlns="http://www.w3.org/2000/svg">
<path d="M307.633 572.322H4.02942e-06V451.076C-0.000814891 440.563 2.11918 430.206 6.21751 420.647C10.3158 411.089 16.2939 402.54 23.7764 395.515L171.779 255.459C179.261 248.434 188.101 242.995 197.786 239.472C207.471 235.95 217.816 234.41 228.234 234.952C238.652 235.494 248.816 238.107 258.139 242.636C267.462 247.165 275.752 253.516 282.505 261.293L444.401 451.076V572.322H307.633Z" fill="#F2F2F2"/>
<path d="M682.791 572.322H375.158V451.076C375.157 440.563 377.277 430.206 381.376 420.647C385.474 411.089 391.452 402.54 398.934 395.515L546.937 255.459C554.419 248.434 563.259 242.995 572.944 239.472C582.629 235.95 592.974 234.41 603.392 234.952C613.81 235.494 623.974 238.107 633.297 242.636C642.62 247.165 650.91 253.516 657.663 261.293L819.559 451.076V572.322H682.791Z" fill="#F2F2F2"/>
<path d="M888 573H0V571H888V573Z" fill="#3F3D56"/>
<path d="M396.766 380.837C425.486 380.837 448.756 357.567 448.756 328.847C448.756 300.126 425.486 276.856 396.766 276.856C368.046 276.856 344.776 300.126 344.776 328.847C344.776 357.567 368.046 380.837 396.766 380.837Z" fill="#9AC8EB"/>
<path d="M396.766 353.843C410.595 353.843 421.824 342.614 421.824 328.785C421.824 314.956 410.595 303.727 396.766 303.727C382.937 303.727 371.708 314.956 371.708 328.785C371.708 342.614 382.937 353.843 396.766 353.843Z" fill="white"/>
</svg>